<svg xmlns="http://www.w3.org/2000/svg" version="1.1" xmlns:xlink="http://www.w3.org/1999/xlink" xmlns:svgjs="http://svgjs.dev/svgjs" width="1000" height="151" viewBox="0 0 1000 151"><g transform="matrix(1,0,0,1,-0.6060398012585324,-0.49556390571976294)"><svg viewBox="0 0 396 60" data-background-color="#ffffff" preserveAspectRatio="xMidYMid meet" height="151" width="1000" xmlns="http://www.w3.org/2000/svg" xmlns:xlink="http://www.w3.org/1999/xlink"><g id="tight-bounds" transform="matrix(1,0,0,1,0.23999176129836997,0.19691281021977147)"><svg viewBox="0 0 395.52 59.60617437956045" height="59.60617437956045" width="395.52"><g><svg viewBox="0 0 480.26038620163825 72.37683132971759" height="59.60617437956045" width="395.52"><g transform="matrix(1,0,0,1,84.74038620163829,10.002876109968206)"><svg viewBox="0 0 395.52 52.37107910978118" height="52.37107910978118" width="395.52"><g id="textblocktransform"><svg viewBox="0 0 395.52 52.37107910978118" height="52.37107910978118" width="395.52" id="textblock"><g><svg viewBox="0 0 395.52 52.37107910978118" height="52.37107910978118" width="395.52"><g transform="matrix(1,0,0,1,0,0)"><svg width="395.52" viewBox="2.8499999046325684 -34.849998474121094 267.3299865722656 35.39999771118164" height="52.37107910978118" data-palette-color="#332885"><g class="wordmark-text-0" data-fill-palette-color="primary" id="text-0"><path d="M33.85-17.6L33.85-13.8Q33.85-9.6 31.88-6.33 29.9-3.05 26.58-1.25 23.25 0.55 19.35 0.55L19.35 0.55Q14.25 0.55 10.53-1.58 6.8-3.7 4.83-7.58 2.85-11.45 2.85-16.5L2.85-16.5Q2.85-21.6 5.13-25.8 7.4-30 11.38-32.43 15.35-34.85 20.15-34.85L20.15-34.85Q22.9-34.85 25.5-33.93 28.1-33 29.75-31.3 31.4-29.6 31.4-27.3L31.4-27.3 28.7-27.25Q28.7-28.8 27.33-29.88 25.95-30.95 23.93-31.5 21.9-32.05 20.05-32.05L20.05-32.05Q16.05-32.05 12.8-29.95 9.55-27.85 7.7-24.3 5.85-20.75 5.85-16.5L5.85-16.5Q5.85-12.25 7.45-9.03 9.05-5.8 12.15-4.03 15.25-2.25 19.55-2.25L19.55-2.25Q22.45-2.25 25.1-3.7 27.75-5.15 29.38-7.65 31-10.15 31-13.2L31-13.2 31-14.8 18.85-14.8 18.85-17.6 33.85-17.6ZM41.35 0L41.35-34.2 63.3-34.2 63.3-31.4 44.35-31.4 44.35-19.5 58.3-19.5 58.3-16.7 44.35-16.7 44.35-2.8 64.3-2.8 64.3 0 41.35 0ZM79.69 0L79.69-31.4 68-31.4 68-34.2 94.39-34.2 94.39-31.4 82.69-31.4 82.69 0 79.69 0ZM101.04 0L101.04-34.2 104.09-34.2 104.09 0 101.04 0ZM114.09 0L114.09-34.7 115.04-34.7 137.09-7.2 138.79-4.95 138.74-7.45 138.74-34.25 141.74-34.25 141.74 0.05 139.79 0.05 136.99-2.85 119.39-24.65 116.79-28.05 117.09-24.1 117.09 0 114.09 0ZM160.09 0L160.09-31.4 148.39-31.4 148.39-34.2 174.79-34.2 174.79-31.4 163.09-31.4 163.09 0 160.09 0ZM181.38 0L181.38-34.2 203.34-34.2 203.34-31.4 184.38-31.4 184.38-19.5 198.34-19.5 198.34-16.7 184.38-16.7 184.38-2.8 204.34-2.8 204.34 0 181.38 0ZM234.78-2.8L236.03-0.35Q235.03 0.35 233.83 0.35L233.83 0.35Q232.38 0.35 231.53-0.23 230.68-0.8 230.08-1.6L230.08-1.6 224.13-9.65Q222.38-12 221.06-12.83 219.73-13.65 217.43-13.8L217.43-13.8 217.43-16.6 221.78-16.6Q225.03-16.6 226.98-18.55 228.93-20.5 228.93-23.85L228.93-23.85Q228.93-27.15 227.08-29.28 225.23-31.4 222.33-31.4L222.33-31.4 214.33-31.4 214.33 0 211.33 0 211.33-34.2 222.53-34.2Q225.23-34.2 227.36-32.88 229.48-31.55 230.71-29.25 231.93-26.95 231.93-24.15L231.93-24.15Q231.93-21.5 230.88-19.45 229.83-17.4 228.38-16.2 226.93-15 225.68-14.75L225.68-14.75Q224.83-14.6 223.71-14.63 222.58-14.65 222.53-14.65L222.53-14.65Q224.13-14.3 225.28-12.8L225.28-12.8 227.28-10.05Q228.18-8.85 230.01-6.35 231.83-3.85 232.38-3.25L232.38-3.25Q232.73-2.85 233.01-2.68 233.28-2.5 233.78-2.5L233.78-2.5Q234.43-2.5 234.78-2.8L234.78-2.8ZM242.53 0L242.53-34.7 243.48-34.7 265.53-7.2 267.23-4.95 267.18-7.45 267.18-34.25 270.18-34.25 270.18 0.05 268.23 0.05 265.43-2.85 247.83-24.65 245.23-28.05 245.53-24.1 245.53 0 242.53 0Z" fill="#332885" data-fill-palette-color="primary"></path></g></svg></g></svg></g></svg></g></svg></g><g><svg viewBox="0 0 72.37683132971759 72.37683132971759" height="72.37683132971759" width="72.37683132971759"><g><svg xmlns="http://www.w3.org/2000/svg" xmlns:xlink="http://www.w3.org/1999/xlink" version="1.0" x="0" y="0" viewBox="1 1 48 48" enable-background="new 0 0 50 50" xml:space="preserve" height="72.37683132971759" width="72.37683132971759" class="icon-icon-0" data-fill-palette-color="accent" id="icon-0"><g fill="#332885" data-fill-palette-color="accent"><g fill="#332885" data-fill-palette-color="accent"><rect x="1" y="1" fill="#332885" width="23" height="5" data-fill-palette-color="accent"></rect><rect x="1" y="10" fill="#332885" width="23" height="5" data-fill-palette-color="accent"></rect><rect x="1" y="19" fill="#332885" width="23" height="5" data-fill-palette-color="accent"></rect></g><g fill="#332885" data-fill-palette-color="accent"><rect x="26" y="26" fill="#332885" width="23" height="5" data-fill-palette-color="accent"></rect><rect x="26" y="35" fill="#332885" width="23" height="5" data-fill-palette-color="accent"></rect><rect x="26" y="44" fill="#332885" width="23" height="5" data-fill-palette-color="accent"></rect></g><g fill="#332885" data-fill-palette-color="accent"><rect x="19" y="26" fill="#332885" width="5" height="23" data-fill-palette-color="accent"></rect><rect x="10" y="26" fill="#332885" width="5" height="23" data-fill-palette-color="accent"></rect><rect x="1" y="26" fill="#332885" width="5" height="23" data-fill-palette-color="accent"></rect></g><g fill="#332885" data-fill-palette-color="accent"><rect x="44" y="1" fill="#332885" width="5" height="23" data-fill-palette-color="accent"></rect><rect x="35" y="1" fill="#332885" width="5" height="23" data-fill-palette-color="accent"></rect><rect x="26" y="1" fill="#332885" width="5" height="23" data-fill-palette-color="accent"></rect></g></g></svg></g></svg></g></svg></g><defs></defs></svg><rect width="395.52" height="59.60617437956045" fill="none" stroke="none" visibility="hidden"></rect></g></svg></g></svg>